<svg xmlns="http://www.w3.org/2000/svg" version="1.1" xmlns:xlink="http://www.w3.org/1999/xlink" xmlns:svgjs="http://svgjs.com/svgjs" width="1440" height="560" preserveAspectRatio="none" viewBox="0 0 1440 560"><g mask="url(&quot;#SvgjsMask1000&quot;)" fill="none"><rect width="1440" height="560" x="0" y="0" fill="#0e2a47"></rect><path d="M-54.46 367.65L-54.46 367.65" stroke="#132e65" stroke-width="1.5"></path><path d="M-54.46 367.65L-75.41 548.3" stroke="#132e65" stroke-width="1.5"></path><path d="M-75.41 548.3L-75.41 548.3" stroke="#132e65" stroke-width="1.5"></path><path d="M-75.41 548.3L-102.59 644.95" stroke="#132e65" stroke-width="1.5"></path><path d="M-75.41 548.3L92.07 539.26" stroke="#132e65" stroke-width="1.5"></path><path d="M-75.41 548.3L49.96 670.82" stroke="#132e65" stroke-width="1.5"></path><path d="M-75.41 548.3L212.49 654.59" stroke="#132e65" stroke-width="1.5"></path><path d="M-102.59 644.95L-102.59 644.95" stroke="#132e65" stroke-width="1.5"></path><path d="M-102.59 644.95L49.96 670.82" stroke="#132e65" stroke-width="1.5"></path><path d="M-102.59 644.95L92.07 539.26" stroke="#132e65" stroke-width="1.5"></path><path d="M-102.59 644.95L-54.46 367.65" stroke="#132e65" stroke-width="1.5"></path><path d="M-102.59 644.95L212.49 654.59" stroke="#132e65" stroke-width="1.5"></path><path d="M-102.59 644.95L246.69 489.05" stroke="#132e65" stroke-width="1.5"></path><path d="M92.07 539.26L92.07 539.26" stroke="#132e65" stroke-width="1.5"></path><path d="M92.07 539.26L49.96 670.82" stroke="#132e65" stroke-width="1.5"></path><path d="M92.07 539.26L246.69 489.05" stroke="#132e65" stroke-width="1.5"></path><path d="M92.07 539.26L212.49 654.59" stroke="#132e65" stroke-width="1.5"></path><path d="M49.96 670.82L49.96 670.82" stroke="#132e65" stroke-width="1.5"></path><path d="M49.96 670.82L212.49 654.59" stroke="#132e65" stroke-width="1.5"></path><path d="M221.1 375.49L221.1 375.49" stroke="#132e65" stroke-width="1.5"></path><path d="M221.1 375.49L246.69 489.05" stroke="#132e65" stroke-width="1.5"></path><path d="M221.1 375.49L403.22 403.61" stroke="#132e65" stroke-width="1.5"></path><path d="M221.1 375.49L92.07 539.26" stroke="#132e65" stroke-width="1.5"></path><path d="M221.1 375.49L407.91 497.54" stroke="#132e65" stroke-width="1.5"></path><path d="M221.1 375.49L-54.46 367.65" stroke="#132e65" stroke-width="1.5"></path><path d="M246.69 489.05L246.69 489.05" stroke="#132e65" stroke-width="1.5"></path><path d="M246.69 489.05L407.91 497.54" stroke="#132e65" stroke-width="1.5"></path><path d="M246.69 489.05L212.49 654.59" stroke="#132e65" stroke-width="1.5"></path><path d="M212.49 654.59L212.49 654.59" stroke="#132e65" stroke-width="1.5"></path><path d="M212.49 654.59L380.46 669.86" stroke="#132e65" stroke-width="1.5"></path><path d="M212.49 654.59L407.91 497.54" stroke="#132e65" stroke-width="1.5"></path><path d="M403.22 403.61L403.22 403.61" stroke="#132e65" stroke-width="1.5"></path><path d="M403.22 403.61L407.91 497.54" stroke="#132e65" stroke-width="1.5"></path><path d="M403.22 403.61L511.31 360.51" stroke="#132e65" stroke-width="1.5"></path><path d="M403.22 403.61L538.52 488.68" stroke="#132e65" stroke-width="1.5"></path><path d="M403.22 403.61L246.69 489.05" stroke="#132e65" stroke-width="1.5"></path><path d="M403.22 403.61L640.1 378.12" stroke="#132e65" stroke-width="1.5"></path><path d="M407.91 497.54L407.91 497.54" stroke="#132e65" stroke-width="1.5"></path><path d="M407.91 497.54L538.52 488.68" stroke="#132e65" stroke-width="1.5"></path><path d="M407.91 497.54L511.31 360.51" stroke="#132e65" stroke-width="1.5"></path><path d="M380.46 669.86L380.46 669.86" stroke="#132e65" stroke-width="1.5"></path><path d="M380.46 669.86L548.95 664.92" stroke="#132e65" stroke-width="1.5"></path><path d="M380.46 669.86L407.91 497.54" stroke="#132e65" stroke-width="1.5"></path><path d="M511.31 360.51L511.31 360.51" stroke="#132e65" stroke-width="1.5"></path><path d="M538.52 488.68L538.52 488.68" stroke="#132e65" stroke-width="1.5"></path><path d="M538.52 488.68L652.43 510.02" stroke="#132e65" stroke-width="1.5"></path><path d="M548.95 664.92L548.95 664.92" stroke="#132e65" stroke-width="1.5"></path><path d="M548.95 664.92L538.52 488.68" stroke="#132e65" stroke-width="1.5"></path><path d="M548.95 664.92L652.43 510.02" stroke="#132e65" stroke-width="1.5"></path><path d="M548.95 664.92L407.91 497.54" stroke="#132e65" stroke-width="1.5"></path><path d="M548.95 664.92L403.22 403.61" stroke="#132e65" stroke-width="1.5"></path><path d="M548.95 664.92L640.1 378.12" stroke="#132e65" stroke-width="1.5"></path><path d="M640.89 235.11L640.89 235.11" stroke="#132e65" stroke-width="1.5"></path><path d="M640.89 235.11L640.1 378.12" stroke="#132e65" stroke-width="1.5"></path><path d="M640.89 235.11L511.31 360.51" stroke="#132e65" stroke-width="1.5"></path><path d="M640.89 235.11L827.77 250.37" stroke="#132e65" stroke-width="1.5"></path><path d="M640.89 235.11L838.98 359.73" stroke="#132e65" stroke-width="1.5"></path><path d="M640.1 378.12L640.1 378.12" stroke="#132e65" stroke-width="1.5"></path><path d="M640.1 378.12L511.31 360.51" stroke="#132e65" stroke-width="1.5"></path><path d="M640.1 378.12L652.43 510.02" stroke="#132e65" stroke-width="1.5"></path><path d="M640.1 378.12L538.52 488.68" stroke="#132e65" stroke-width="1.5"></path><path d="M640.1 378.12L838.98 359.73" stroke="#132e65" stroke-width="1.5"></path><path d="M640.1 378.12L827.77 250.37" stroke="#132e65" stroke-width="1.5"></path><path d="M652.43 510.02L652.43 510.02" stroke="#132e65" stroke-width="1.5"></path><path d="M652.43 510.02L845.99 510" stroke="#132e65" stroke-width="1.5"></path><path d="M652.43 510.02L511.31 360.51" stroke="#132e65" stroke-width="1.5"></path><path d="M652.43 510.02L838.98 359.73" stroke="#132e65" stroke-width="1.5"></path><path d="M827.77 250.37L827.77 250.37" stroke="#132e65" stroke-width="1.5"></path><path d="M827.77 250.37L838.98 359.73" stroke="#132e65" stroke-width="1.5"></path><path d="M827.77 250.37L955.23 191.69" stroke="#132e65" stroke-width="1.5"></path><path d="M827.77 250.37L964.03 404.21" stroke="#132e65" stroke-width="1.5"></path><path d="M838.98 359.73L838.98 359.73" stroke="#132e65" stroke-width="1.5"></path><path d="M838.98 359.73L964.03 404.21" stroke="#132e65" stroke-width="1.5"></path><path d="M838.98 359.73L845.99 510" stroke="#132e65" stroke-width="1.5"></path><path d="M838.98 359.73L955.23 191.69" stroke="#132e65" stroke-width="1.5"></path><path d="M838.98 359.73L996.58 508.36" stroke="#132e65" stroke-width="1.5"></path><path d="M845.99 510L845.99 510" stroke="#132e65" stroke-width="1.5"></path><path d="M845.99 510L996.58 508.36" stroke="#132e65" stroke-width="1.5"></path><path d="M845.99 510L964.03 404.21" stroke="#132e65" stroke-width="1.5"></path><path d="M845.99 510L859.97 668.37" stroke="#132e65" stroke-width="1.5"></path><path d="M845.99 510L978.8 703.68" stroke="#132e65" stroke-width="1.5"></path><path d="M859.97 668.37L859.97 668.37" stroke="#132e65" stroke-width="1.5"></path><path d="M859.97 668.37L978.8 703.68" stroke="#132e65" stroke-width="1.5"></path><path d="M859.97 668.37L996.58 508.36" stroke="#132e65" stroke-width="1.5"></path><path d="M859.97 668.37L1107.93 711.66" stroke="#132e65" stroke-width="1.5"></path><path d="M946.3 -58.65L946.3 -58.65" stroke="#132e65" stroke-width="1.5"></path><path d="M946.3 -58.65L952.65 56.71" stroke="#132e65" stroke-width="1.5"></path><path d="M946.3 -58.65L1122.01 -77.82" stroke="#132e65" stroke-width="1.5"></path><path d="M946.3 -58.65L1126.15 78.5" stroke="#132e65" stroke-width="1.5"></path><path d="M952.65 56.71L952.65 56.71" stroke="#132e65" stroke-width="1.5"></path><path d="M952.65 56.71L955.23 191.69" stroke="#132e65" stroke-width="1.5"></path><path d="M955.23 191.69L955.23 191.69" stroke="#132e65" stroke-width="1.5"></path><path d="M955.23 191.69L1110.18 242.77" stroke="#132e65" stroke-width="1.5"></path><path d="M964.03 404.21L964.03 404.21" stroke="#132e65" stroke-width="1.5"></path><path d="M964.03 404.21L996.58 508.36" stroke="#132e65" stroke-width="1.5"></path><path d="M996.58 508.36L996.58 508.36" stroke="#132e65" stroke-width="1.5"></path><path d="M996.58 508.36L1113.36 556.49" stroke="#132e65" stroke-width="1.5"></path><path d="M996.58 508.36L1136.87 391.59" stroke="#132e65" stroke-width="1.5"></path><path d="M978.8 703.68L978.8 703.68" stroke="#132e65" stroke-width="1.5"></path><path d="M978.8 703.68L1107.93 711.66" stroke="#132e65" stroke-width="1.5"></path><path d="M978.8 703.68L996.58 508.36" stroke="#132e65" stroke-width="1.5"></path><path d="M1122.01 -77.82L1122.01 -77.82" stroke="#132e65" stroke-width="1.5"></path><path d="M1122.01 -77.82L1126.15 78.5" stroke="#132e65" stroke-width="1.5"></path><path d="M1122.01 -77.82L1280.11 -59.77" stroke="#132e65" stroke-width="1.5"></path><path d="M1122.01 -77.82L952.65 56.71" stroke="#132e65" stroke-width="1.5"></path><path d="M1122.01 -77.82L1247.3 98.87" stroke="#132e65" stroke-width="1.5"></path><path d="M1126.15 78.5L1126.15 78.5" stroke="#132e65" stroke-width="1.5"></path><path d="M1126.15 78.5L1247.3 98.87" stroke="#132e65" stroke-width="1.5"></path><path d="M1110.18 242.77L1110.18 242.77" stroke="#132e65" stroke-width="1.5"></path><path d="M1110.18 242.77L1136.87 391.59" stroke="#132e65" stroke-width="1.5"></path><path d="M1110.18 242.77L1126.15 78.5" stroke="#132e65" stroke-width="1.5"></path><path d="M1136.87 391.59L1136.87 391.59" stroke="#132e65" stroke-width="1.5"></path><path d="M1136.87 391.59L1282.38 369.54" stroke="#132e65" stroke-width="1.5"></path><path d="M1113.36 556.49L1113.36 556.49" stroke="#132e65" stroke-width="1.5"></path><path d="M1113.36 556.49L1256.22 553.96" stroke="#132e65" stroke-width="1.5"></path><path d="M1113.36 556.49L1107.93 711.66" stroke="#132e65" stroke-width="1.5"></path><path d="M1107.93 711.66L1107.93 711.66" stroke="#132e65" stroke-width="1.5"></path><path d="M1107.93 711.66L1256.26 648.49" stroke="#132e65" stroke-width="1.5"></path><path d="M1107.93 711.66L1256.22 553.96" stroke="#132e65" stroke-width="1.5"></path><path d="M1107.93 711.66L996.58 508.36" stroke="#132e65" stroke-width="1.5"></path><path d="M1280.11 -59.77L1280.11 -59.77" stroke="#132e65" stroke-width="1.5"></path><path d="M1280.11 -59.77L1395.33 -105.1" stroke="#132e65" stroke-width="1.5"></path><path d="M1247.3 98.87L1247.3 98.87" stroke="#132e65" stroke-width="1.5"></path><path d="M1247.3 98.87L1281.65 216.06" stroke="#132e65" stroke-width="1.5"></path><path d="M1281.65 216.06L1281.65 216.06" stroke="#132e65" stroke-width="1.5"></path><path d="M1281.65 216.06L1419.26 189.17" stroke="#132e65" stroke-width="1.5"></path><path d="M1281.65 216.06L1282.38 369.54" stroke="#132e65" stroke-width="1.5"></path><path d="M1281.65 216.06L1110.18 242.77" stroke="#132e65" stroke-width="1.5"></path><path d="M1281.65 216.06L1126.15 78.5" stroke="#132e65" stroke-width="1.5"></path><path d="M1281.65 216.06L1136.87 391.59" stroke="#132e65" stroke-width="1.5"></path><path d="M1282.38 369.54L1282.38 369.54" stroke="#132e65" stroke-width="1.5"></path><path d="M1282.38 369.54L1448.35 372.97" stroke="#132e65" stroke-width="1.5"></path><path d="M1282.38 369.54L1256.22 553.96" stroke="#132e65" stroke-width="1.5"></path><path d="M1282.38 369.54L1437.69 487.87" stroke="#132e65" stroke-width="1.5"></path><path d="M1256.22 553.96L1256.22 553.96" stroke="#132e65" stroke-width="1.5"></path><path d="M1256.22 553.96L1256.26 648.49" stroke="#132e65" stroke-width="1.5"></path><path d="M1256.22 553.96L1437.69 487.87" stroke="#132e65" stroke-width="1.5"></path><path d="M1256.26 648.49L1256.26 648.49" stroke="#132e65" stroke-width="1.5"></path><path d="M1395.33 -105.1L1395.33 -105.1" stroke="#132e65" stroke-width="1.5"></path><path d="M1395.33 -105.1L1540.38 -108.25" stroke="#132e65" stroke-width="1.5"></path><path d="M1395.33 -105.1L1456.15 42.31" stroke="#132e65" stroke-width="1.5"></path><path d="M1456.15 42.31L1456.15 42.31" stroke="#132e65" stroke-width="1.5"></path><path d="M1456.15 42.31L1419.26 189.17" stroke="#132e65" stroke-width="1.5"></path><path d="M1456.15 42.31L1540.38 -108.25" stroke="#132e65" stroke-width="1.5"></path><path d="M1419.26 189.17L1419.26 189.17" stroke="#132e65" stroke-width="1.5"></path><path d="M1419.26 189.17L1552.45 230.45" stroke="#132e65" stroke-width="1.5"></path><path d="M1448.35 372.97L1448.35 372.97" stroke="#132e65" stroke-width="1.5"></path><path d="M1448.35 372.97L1437.69 487.87" stroke="#132e65" stroke-width="1.5"></path><path d="M1448.35 372.97L1588.15 341.8" stroke="#132e65" stroke-width="1.5"></path><path d="M1437.69 487.87L1437.69 487.87" stroke="#132e65" stroke-width="1.5"></path><path d="M1437.69 487.87L1558.08 535.65" stroke="#132e65" stroke-width="1.5"></path><path d="M1423.67 710.67L1423.67 710.67" stroke="#132e65" stroke-width="1.5"></path><path d="M1423.67 710.67L1578.28 673.64" stroke="#132e65" stroke-width="1.5"></path><path d="M1423.67 710.67L1256.26 648.49" stroke="#132e65" stroke-width="1.5"></path><path d="M1423.67 710.67L1558.08 535.65" stroke="#132e65" stroke-width="1.5"></path><path d="M1423.67 710.67L1437.69 487.87" stroke="#132e65" stroke-width="1.5"></path><path d="M1423.67 710.67L1256.22 553.96" stroke="#132e65" stroke-width="1.5"></path><path d="M1423.67 710.67L1107.93 711.66" stroke="#132e65" stroke-width="1.5"></path><path d="M1540.38 -108.25L1540.38 -108.25" stroke="#132e65" stroke-width="1.5"></path><path d="M1540.38 -108.25L1280.11 -59.77" stroke="#132e65" stroke-width="1.5"></path><path d="M1540.38 -108.25L1419.26 189.17" stroke="#132e65" stroke-width="1.5"></path><path d="M1552.45 230.45L1552.45 230.45" stroke="#132e65" stroke-width="1.5"></path><path d="M1552.45 230.45L1588.15 341.8" stroke="#132e65" stroke-width="1.5"></path><path d="M1552.45 230.45L1448.35 372.97" stroke="#132e65" stroke-width="1.5"></path><path d="M1588.15 341.8L1588.15 341.8" stroke="#132e65" stroke-width="1.5"></path><path d="M1558.08 535.65L1558.08 535.65" stroke="#132e65" stroke-width="1.5"></path><path d="M1558.08 535.65L1578.28 673.64" stroke="#132e65" stroke-width="1.5"></path><path d="M1558.08 535.65L1588.15 341.8" stroke="#132e65" stroke-width="1.5"></path><path d="M1558.08 535.65L1448.35 372.97" stroke="#132e65" stroke-width="1.5"></path><path d="M1558.08 535.65L1256.22 553.96" stroke="#132e65" stroke-width="1.5"></path><path d="M1578.28 673.64L1578.28 673.64" stroke="#132e65" stroke-width="1.5"></path><path d="M1578.28 673.64L1437.69 487.87" stroke="#132e65" stroke-width="1.5"></path><path d="M1578.28 673.64L1256.26 648.49" stroke="#132e65" stroke-width="1.5"></path><path d="M1578.28 673.64L1448.35 372.97" stroke="#132e65" stroke-width="1.5"></path><path d="M1578.28 673.64L1588.15 341.8" stroke="#132e65" stroke-width="1.5"></path><circle r="5" cx="-54.46" cy="367.65" fill="#132e65"></circle><circle r="5" cx="-75.41" cy="548.3" fill="#132e65"></circle><circle r="5" cx="-102.59" cy="644.95" fill="#132e65"></circle><circle r="5" cx="92.07" cy="539.26" fill="#132e65"></circle><circle r="5" cx="49.96" cy="670.82" fill="#132e65"></circle><circle r="5" cx="221.1" cy="375.49" fill="#132e65"></circle><circle r="5" cx="246.69" cy="489.05" fill="#132e65"></circle><circle r="5" cx="212.49" cy="654.59" fill="#132e65"></circle><circle r="5" cx="403.22" cy="403.61" fill="#132e65"></circle><circle r="5" cx="407.91" cy="497.54" fill="#132e65"></circle><circle r="5" cx="380.46" cy="669.86" fill="#132e65"></circle><circle r="5" cx="511.31" cy="360.51" fill="#132e65"></circle><circle r="5" cx="538.52" cy="488.68" fill="#132e65"></circle><circle r="5" cx="548.95" cy="664.92" fill="#132e65"></circle><circle r="5" cx="640.89" cy="235.11" fill="#132e65"></circle><circle r="5" cx="640.1" cy="378.12" fill="#132e65"></circle><circle r="5" cx="652.43" cy="510.02" fill="#132e65"></circle><circle r="5" cx="827.77" cy="250.37" fill="#132e65"></circle><circle r="5" cx="838.98" cy="359.73" fill="#132e65"></circle><circle r="5" cx="845.99" cy="510" fill="#132e65"></circle><circle r="5" cx="859.97" cy="668.37" fill="#132e65"></circle><circle r="5" cx="946.3" cy="-58.65" fill="#132e65"></circle><circle r="5" cx="952.65" cy="56.71" fill="#132e65"></circle><circle r="5" cx="955.23" cy="191.69" fill="#132e65"></circle><circle r="5" cx="964.03" cy="404.21" fill="#132e65"></circle><circle r="5" cx="996.58" cy="508.36" fill="#132e65"></circle><circle r="5" cx="978.8" cy="703.68" fill="#132e65"></circle><circle r="5" cx="1122.01" cy="-77.82" fill="#132e65"></circle><circle r="5" cx="1126.15" cy="78.5" fill="#132e65"></circle><circle r="5" cx="1110.18" cy="242.77" fill="#132e65"></circle><circle r="5" cx="1136.87" cy="391.59" fill="#132e65"></circle><circle r="5" cx="1113.36" cy="556.49" fill="#132e65"></circle><circle r="5" cx="1107.93" cy="711.66" fill="#132e65"></circle><circle r="5" cx="1280.11" cy="-59.77" fill="#132e65"></circle><circle r="5" cx="1247.3" cy="98.87" fill="#132e65"></circle><circle r="5" cx="1281.65" cy="216.06" fill="#132e65"></circle><circle r="5" cx="1282.38" cy="369.54" fill="#132e65"></circle><circle r="5" cx="1256.22" cy="553.96" fill="#132e65"></circle><circle r="5" cx="1256.26" cy="648.49" fill="#132e65"></circle><circle r="5" cx="1395.33" cy="-105.1" fill="#132e65"></circle><circle r="5" cx="1456.15" cy="42.31" fill="#132e65"></circle><circle r="5" cx="1419.26" cy="189.17" fill="#132e65"></circle><circle r="5" cx="1448.35" cy="372.97" fill="#132e65"></circle><circle r="5" cx="1437.69" cy="487.87" fill="#132e65"></circle><circle r="5" cx="1423.67" cy="710.67" fill="#132e65"></circle><circle r="5" cx="1540.38" cy="-108.25" fill="#132e65"></circle><circle r="5" cx="1552.45" cy="230.45" fill="#132e65"></circle><circle r="5" cx="1588.15" cy="341.8" fill="#132e65"></circle><circle r="5" cx="1558.08" cy="535.65" fill="#132e65"></circle><circle r="5" cx="1578.28" cy="673.64" fill="#132e65"></circle><path d="M-67.54 553.29L-67.54 553.29" stroke="hsl(228.5, 77.2%, 51.5%)" stroke-width="1.5"></path><path d="M-67.54 553.29L57.44 505.17" stroke="hsl(228.5, 77.2%, 51.5%)" stroke-width="1.5"></path><path d="M-67.54 553.29L56.41 709.04" stroke="hsl(228.5, 77.2%, 51.5%)" stroke-width="1.5"></path><path d="M57.44 505.17L57.44 505.17" stroke="hsl(228.5, 77.2%, 51.5%)" stroke-width="1.5"></path><path d="M57.44 505.17L241.43 536.24" stroke="hsl(228.5, 77.2%, 51.5%)" stroke-width="1.5"></path><path d="M57.44 505.17L56.41 709.04" stroke="hsl(228.5, 77.2%, 51.5%)" stroke-width="1.5"></path><path d="M57.44 505.17L211.23 654.59" stroke="hsl(228.5, 77.2%, 51.5%)" stroke-width="1.5"></path><path d="M57.44 505.17L375.47 497.2" stroke="hsl(228.5, 77.2%, 51.5%)" stroke-width="1.5"></path><path d="M241.43 536.24L241.43 536.24" stroke="hsl(228.5, 77.2%, 51.5%)" stroke-width="1.5"></path><path d="M241.43 536.24L211.23 654.59" stroke="hsl(228.5, 77.2%, 51.5%)" stroke-width="1.5"></path><path d="M241.43 536.24L375.47 497.2" stroke="hsl(228.5, 77.2%, 51.5%)" stroke-width="1.5"></path><path d="M241.43 536.24L402.87 685.22" stroke="hsl(228.5, 77.2%, 51.5%)" stroke-width="1.5"></path><path d="M554.29 666.23L554.29 666.23" stroke="hsl(228.5, 77.2%, 51.5%)" stroke-width="1.5"></path><path d="M554.29 666.23L641.58 685.97" stroke="hsl(228.5, 77.2%, 51.5%)" stroke-width="1.5"></path><path d="M554.29 666.23L402.87 685.22" stroke="hsl(228.5, 77.2%, 51.5%)" stroke-width="1.5"></path><path d="M702.93 375.86L702.93 375.86" stroke="hsl(228.5, 77.2%, 51.5%)" stroke-width="1.5"></path><path d="M702.93 375.86L829.26 376.9" stroke="hsl(228.5, 77.2%, 51.5%)" stroke-width="1.5"></path><path d="M1292.07 690.91L1292.07 690.91" stroke="hsl(228.5, 77.2%, 51.5%)" stroke-width="1.5"></path><path d="M1292.07 690.91L1400.29 686.03" stroke="hsl(228.5, 77.2%, 51.5%)" stroke-width="1.5"></path><path d="M1292.07 690.91L1240.74 518.22" stroke="hsl(228.5, 77.2%, 51.5%)" stroke-width="1.5"></path><path d="M1292.07 690.91L1105.18 670.75" stroke="hsl(228.5, 77.2%, 51.5%)" stroke-width="1.5"></path><path d="M1388.87 42.1L1388.87 42.1" stroke="hsl(228.5, 77.2%, 51.5%)" stroke-width="1.5"></path><path d="M1388.87 42.1L1306.01 77.23" stroke="hsl(228.5, 77.2%, 51.5%)" stroke-width="1.5"></path><path d="M1388.87 42.1L1459.05 -90.99" stroke="hsl(228.5, 77.2%, 51.5%)" stroke-width="1.5"></path><path d="M1388.87 42.1L1297.18 198.56" stroke="hsl(228.5, 77.2%, 51.5%)" stroke-width="1.5"></path><path d="M1388.87 42.1L1422.72 226.38" stroke="hsl(228.5, 77.2%, 51.5%)" stroke-width="1.5"></path><path d="M1590.46 97.36L1590.46 97.36" stroke="hsl(228.5, 77.2%, 51.5%)" stroke-width="1.5"></path><path d="M1590.46 97.36L1602.92 188.75" stroke="hsl(228.5, 77.2%, 51.5%)" stroke-width="1.5"></path><path d="M1590.46 97.36L1553.6 -92.21" stroke="hsl(228.5, 77.2%, 51.5%)" stroke-width="1.5"></path><path d="M1590.46 97.36L1388.87 42.1" stroke="hsl(228.5, 77.2%, 51.5%)" stroke-width="1.5"></path><path d="M56.41 709.04L56.41 709.04" stroke="hsl(228.5, 77.2%, 51.5%)" stroke-width="1.5"></path><path d="M56.41 709.04L211.23 654.59" stroke="hsl(228.5, 77.2%, 51.5%)" stroke-width="1.5"></path><path d="M211.23 654.59L211.23 654.59" stroke="hsl(228.5, 77.2%, 51.5%)" stroke-width="1.5"></path><path d="M211.23 654.59L402.87 685.22" stroke="hsl(228.5, 77.2%, 51.5%)" stroke-width="1.5"></path><path d="M375.47 497.2L375.47 497.2" stroke="hsl(228.5, 77.2%, 51.5%)" stroke-width="1.5"></path><path d="M375.47 497.2L402.87 685.22" stroke="hsl(228.5, 77.2%, 51.5%)" stroke-width="1.5"></path><path d="M375.47 497.2L211.23 654.59" stroke="hsl(228.5, 77.2%, 51.5%)" stroke-width="1.5"></path><path d="M402.87 685.22L402.87 685.22" stroke="hsl(228.5, 77.2%, 51.5%)" stroke-width="1.5"></path><path d="M675.01 512.41L675.01 512.41" stroke="hsl(228.5, 77.2%, 51.5%)" stroke-width="1.5"></path><path d="M675.01 512.41L702.93 375.86" stroke="hsl(228.5, 77.2%, 51.5%)" stroke-width="1.5"></path><path d="M675.01 512.41L846.71 553.07" stroke="hsl(228.5, 77.2%, 51.5%)" stroke-width="1.5"></path><path d="M675.01 512.41L641.58 685.97" stroke="hsl(228.5, 77.2%, 51.5%)" stroke-width="1.5"></path><path d="M675.01 512.41L793.56 648.08" stroke="hsl(228.5, 77.2%, 51.5%)" stroke-width="1.5"></path><path d="M675.01 512.41L554.29 666.23" stroke="hsl(228.5, 77.2%, 51.5%)" stroke-width="1.5"></path><path d="M641.58 685.97L641.58 685.97" stroke="hsl(228.5, 77.2%, 51.5%)" stroke-width="1.5"></path><path d="M641.58 685.97L793.56 648.08" stroke="hsl(228.5, 77.2%, 51.5%)" stroke-width="1.5"></path><path d="M641.58 685.97L402.87 685.22" stroke="hsl(228.5, 77.2%, 51.5%)" stroke-width="1.5"></path><path d="M641.58 685.97L846.71 553.07" stroke="hsl(228.5, 77.2%, 51.5%)" stroke-width="1.5"></path><path d="M641.58 685.97L938.45 650.86" stroke="hsl(228.5, 77.2%, 51.5%)" stroke-width="1.5"></path><path d="M829.26 376.9L829.26 376.9" stroke="hsl(228.5, 77.2%, 51.5%)" stroke-width="1.5"></path><path d="M829.26 376.9L846.71 553.07" stroke="hsl(228.5, 77.2%, 51.5%)" stroke-width="1.5"></path><path d="M829.26 376.9L1002.21 338.39" stroke="hsl(228.5, 77.2%, 51.5%)" stroke-width="1.5"></path><path d="M829.26 376.9L675.01 512.41" stroke="hsl(228.5, 77.2%, 51.5%)" stroke-width="1.5"></path><path d="M829.26 376.9L960.4 547.64" stroke="hsl(228.5, 77.2%, 51.5%)" stroke-width="1.5"></path><path d="M846.71 553.07L846.71 553.07" stroke="hsl(228.5, 77.2%, 51.5%)" stroke-width="1.5"></path><path d="M846.71 553.07L793.56 648.08" stroke="hsl(228.5, 77.2%, 51.5%)" stroke-width="1.5"></path><path d="M846.71 553.07L960.4 547.64" stroke="hsl(228.5, 77.2%, 51.5%)" stroke-width="1.5"></path><path d="M793.56 648.08L793.56 648.08" stroke="hsl(228.5, 77.2%, 51.5%)" stroke-width="1.5"></path><path d="M793.56 648.08L938.45 650.86" stroke="hsl(228.5, 77.2%, 51.5%)" stroke-width="1.5"></path><path d="M1002.21 338.39L1002.21 338.39" stroke="hsl(228.5, 77.2%, 51.5%)" stroke-width="1.5"></path><path d="M1002.21 338.39L1140.47 219.53" stroke="hsl(228.5, 77.2%, 51.5%)" stroke-width="1.5"></path><path d="M1002.21 338.39L1111.45 493.18" stroke="hsl(228.5, 77.2%, 51.5%)" stroke-width="1.5"></path><path d="M1002.21 338.39L960.4 547.64" stroke="hsl(228.5, 77.2%, 51.5%)" stroke-width="1.5"></path><path d="M960.4 547.64L960.4 547.64" stroke="hsl(228.5, 77.2%, 51.5%)" stroke-width="1.5"></path><path d="M960.4 547.64L938.45 650.86" stroke="hsl(228.5, 77.2%, 51.5%)" stroke-width="1.5"></path><path d="M960.4 547.64L1111.45 493.18" stroke="hsl(228.5, 77.2%, 51.5%)" stroke-width="1.5"></path><path d="M960.4 547.64L1105.18 670.75" stroke="hsl(228.5, 77.2%, 51.5%)" stroke-width="1.5"></path><path d="M960.4 547.64L793.56 648.08" stroke="hsl(228.5, 77.2%, 51.5%)" stroke-width="1.5"></path><path d="M938.45 650.86L938.45 650.86" stroke="hsl(228.5, 77.2%, 51.5%)" stroke-width="1.5"></path><path d="M938.45 650.86L846.71 553.07" stroke="hsl(228.5, 77.2%, 51.5%)" stroke-width="1.5"></path><path d="M1139.72 70.97L1139.72 70.97" stroke="hsl(228.5, 77.2%, 51.5%)" stroke-width="1.5"></path><path d="M1139.72 70.97L1140.47 219.53" stroke="hsl(228.5, 77.2%, 51.5%)" stroke-width="1.5"></path><path d="M1139.72 70.97L1306.01 77.23" stroke="hsl(228.5, 77.2%, 51.5%)" stroke-width="1.5"></path><path d="M1140.47 219.53L1140.47 219.53" stroke="hsl(228.5, 77.2%, 51.5%)" stroke-width="1.5"></path><path d="M1140.47 219.53L1297.18 198.56" stroke="hsl(228.5, 77.2%, 51.5%)" stroke-width="1.5"></path><path d="M1111.45 493.18L1111.45 493.18" stroke="hsl(228.5, 77.2%, 51.5%)" stroke-width="1.5"></path><path d="M1111.45 493.18L1240.74 518.22" stroke="hsl(228.5, 77.2%, 51.5%)" stroke-width="1.5"></path><path d="M1111.45 493.18L1105.18 670.75" stroke="hsl(228.5, 77.2%, 51.5%)" stroke-width="1.5"></path><path d="M1105.18 670.75L1105.18 670.75" stroke="hsl(228.5, 77.2%, 51.5%)" stroke-width="1.5"></path><path d="M1105.18 670.75L938.45 650.86" stroke="hsl(228.5, 77.2%, 51.5%)" stroke-width="1.5"></path><path d="M1105.18 670.75L1240.74 518.22" stroke="hsl(228.5, 77.2%, 51.5%)" stroke-width="1.5"></path><path d="M1105.18 670.75L846.71 553.07" stroke="hsl(228.5, 77.2%, 51.5%)" stroke-width="1.5"></path><path d="M1306.01 77.23L1306.01 77.23" stroke="hsl(228.5, 77.2%, 51.5%)" stroke-width="1.5"></path><path d="M1306.01 77.23L1297.18 198.56" stroke="hsl(228.5, 77.2%, 51.5%)" stroke-width="1.5"></path><path d="M1297.18 198.56L1297.18 198.56" stroke="hsl(228.5, 77.2%, 51.5%)" stroke-width="1.5"></path><path d="M1297.18 198.56L1422.72 226.38" stroke="hsl(228.5, 77.2%, 51.5%)" stroke-width="1.5"></path><path d="M1297.18 198.56L1291.46 392.17" stroke="hsl(228.5, 77.2%, 51.5%)" stroke-width="1.5"></path><path d="M1297.18 198.56L1139.72 70.97" stroke="hsl(228.5, 77.2%, 51.5%)" stroke-width="1.5"></path><path d="M1291.46 392.17L1291.46 392.17" stroke="hsl(228.5, 77.2%, 51.5%)" stroke-width="1.5"></path><path d="M1291.46 392.17L1418.41 392.55" stroke="hsl(228.5, 77.2%, 51.5%)" stroke-width="1.5"></path><path d="M1291.46 392.17L1240.74 518.22" stroke="hsl(228.5, 77.2%, 51.5%)" stroke-width="1.5"></path><path d="M1291.46 392.17L1416.05 518.38" stroke="hsl(228.5, 77.2%, 51.5%)" stroke-width="1.5"></path><path d="M1291.46 392.17L1111.45 493.18" stroke="hsl(228.5, 77.2%, 51.5%)" stroke-width="1.5"></path><path d="M1240.74 518.22L1240.74 518.22" stroke="hsl(228.5, 77.2%, 51.5%)" stroke-width="1.5"></path><path d="M1240.74 518.22L1416.05 518.38" stroke="hsl(228.5, 77.2%, 51.5%)" stroke-width="1.5"></path><path d="M1240.74 518.22L1418.41 392.55" stroke="hsl(228.5, 77.2%, 51.5%)" stroke-width="1.5"></path><path d="M1459.05 -90.99L1459.05 -90.99" stroke="hsl(228.5, 77.2%, 51.5%)" stroke-width="1.5"></path><path d="M1459.05 -90.99L1553.6 -92.21" stroke="hsl(228.5, 77.2%, 51.5%)" stroke-width="1.5"></path><path d="M1459.05 -90.99L1306.01 77.23" stroke="hsl(228.5, 77.2%, 51.5%)" stroke-width="1.5"></path><path d="M1459.05 -90.99L1590.46 97.36" stroke="hsl(228.5, 77.2%, 51.5%)" stroke-width="1.5"></path><path d="M1459.05 -90.99L1602.92 188.75" stroke="hsl(228.5, 77.2%, 51.5%)" stroke-width="1.5"></path><path d="M1459.05 -90.99L1422.72 226.38" stroke="hsl(228.5, 77.2%, 51.5%)" stroke-width="1.5"></path><path d="M1422.72 226.38L1422.72 226.38" stroke="hsl(228.5, 77.2%, 51.5%)" stroke-width="1.5"></path><path d="M1422.72 226.38L1418.41 392.55" stroke="hsl(228.5, 77.2%, 51.5%)" stroke-width="1.5"></path><path d="M1422.72 226.38L1602.92 188.75" stroke="hsl(228.5, 77.2%, 51.5%)" stroke-width="1.5"></path><path d="M1422.72 226.38L1306.01 77.23" stroke="hsl(228.5, 77.2%, 51.5%)" stroke-width="1.5"></path><path d="M1418.41 392.55L1418.41 392.55" stroke="hsl(228.5, 77.2%, 51.5%)" stroke-width="1.5"></path><path d="M1418.41 392.55L1416.05 518.38" stroke="hsl(228.5, 77.2%, 51.5%)" stroke-width="1.5"></path><path d="M1418.41 392.55L1550.64 521.18" stroke="hsl(228.5, 77.2%, 51.5%)" stroke-width="1.5"></path><path d="M1418.41 392.55L1297.18 198.56" stroke="hsl(228.5, 77.2%, 51.5%)" stroke-width="1.5"></path><path d="M1416.05 518.38L1416.05 518.38" stroke="hsl(228.5, 77.2%, 51.5%)" stroke-width="1.5"></path><path d="M1416.05 518.38L1550.64 521.18" stroke="hsl(228.5, 77.2%, 51.5%)" stroke-width="1.5"></path><path d="M1416.05 518.38L1400.29 686.03" stroke="hsl(228.5, 77.2%, 51.5%)" stroke-width="1.5"></path><path d="M1400.29 686.03L1400.29 686.03" stroke="hsl(228.5, 77.2%, 51.5%)" stroke-width="1.5"></path><path d="M1400.29 686.03L1550.64 521.18" stroke="hsl(228.5, 77.2%, 51.5%)" stroke-width="1.5"></path><path d="M1400.29 686.03L1240.74 518.22" stroke="hsl(228.5, 77.2%, 51.5%)" stroke-width="1.5"></path><path d="M1553.6 -92.21L1553.6 -92.21" stroke="hsl(228.5, 77.2%, 51.5%)" stroke-width="1.5"></path><path d="M1553.6 -92.21L1388.87 42.1" stroke="hsl(228.5, 77.2%, 51.5%)" stroke-width="1.5"></path><path d="M1553.6 -92.21L1602.92 188.75" stroke="hsl(228.5, 77.2%, 51.5%)" stroke-width="1.5"></path><path d="M1602.92 188.75L1602.92 188.75" stroke="hsl(228.5, 77.2%, 51.5%)" stroke-width="1.5"></path><path d="M1602.92 188.75L1388.87 42.1" stroke="hsl(228.5, 77.2%, 51.5%)" stroke-width="1.5"></path><path d="M1602.92 188.75L1418.41 392.55" stroke="hsl(228.5, 77.2%, 51.5%)" stroke-width="1.5"></path><path d="M1550.64 521.18L1550.64 521.18" stroke="hsl(228.5, 77.2%, 51.5%)" stroke-width="1.5"></path><path d="M1550.64 521.18L1291.46 392.17" stroke="hsl(228.5, 77.2%, 51.5%)" stroke-width="1.5"></path><path d="M1550.64 521.18L1292.07 690.91" stroke="hsl(228.5, 77.2%, 51.5%)" stroke-width="1.5"></path><path d="M1550.64 521.18L1240.74 518.22" stroke="hsl(228.5, 77.2%, 51.5%)" stroke-width="1.5"></path><circle r="25" cx="-67.54" cy="553.29" fill="url(#SvgjsRadialGradient1001)"></circle><circle r="25" cx="57.44" cy="505.17" fill="url(#SvgjsRadialGradient1001)"></circle><circle r="25" cx="241.43" cy="536.24" fill="url(#SvgjsRadialGradient1001)"></circle><circle r="25" cx="554.29" cy="666.23" fill="url(#SvgjsRadialGradient1001)"></circle><circle r="25" cx="702.93" cy="375.86" fill="url(#SvgjsRadialGradient1001)"></circle><circle r="25" cx="1292.07" cy="690.91" fill="url(#SvgjsRadialGradient1001)"></circle><circle r="25" cx="1388.87" cy="42.1" fill="url(#SvgjsRadialGradient1001)"></circle><circle r="25" cx="1590.46" cy="97.36" fill="url(#SvgjsRadialGradient1001)"></circle><circle r="5" cx="56.41" cy="709.04" fill="#8b9ad9"></circle><circle r="5" cx="211.23" cy="654.59" fill="#8b9ad9"></circle><circle r="5" cx="375.47" cy="497.2" fill="#8b9ad9"></circle><circle r="5" cx="402.87" cy="685.22" fill="#8b9ad9"></circle><circle r="5" cx="675.01" cy="512.41" fill="#8b9ad9"></circle><circle r="5" cx="641.58" cy="685.97" fill="#8b9ad9"></circle><circle r="5" cx="829.26" cy="376.9" fill="#8b9ad9"></circle><circle r="5" cx="846.71" cy="553.07" fill="#8b9ad9"></circle><circle r="5" cx="793.56" cy="648.08" fill="#8b9ad9"></circle><circle r="5" cx="1002.21" cy="338.39" fill="#8b9ad9"></circle><circle r="5" cx="960.4" cy="547.64" fill="#8b9ad9"></circle><circle r="5" cx="938.45" cy="650.86" fill="#8b9ad9"></circle><circle r="5" cx="1139.72" cy="70.97" fill="#8b9ad9"></circle><circle r="5" cx="1140.47" cy="219.53" fill="#8b9ad9"></circle><circle r="5" cx="1111.45" cy="493.18" fill="#8b9ad9"></circle><circle r="5" cx="1105.18" cy="670.75" fill="#8b9ad9"></circle><circle r="5" cx="1306.01" cy="77.23" fill="#8b9ad9"></circle><circle r="5" cx="1297.18" cy="198.56" fill="#8b9ad9"></circle><circle r="5" cx="1291.46" cy="392.17" fill="#8b9ad9"></circle><circle r="5" cx="1240.74" cy="518.22" fill="#8b9ad9"></circle><circle r="5" cx="1459.05" cy="-90.99" fill="#8b9ad9"></circle><circle r="5" cx="1422.72" cy="226.38" fill="#8b9ad9"></circle><circle r="5" cx="1418.41" cy="392.55" fill="#8b9ad9"></circle><circle r="5" cx="1416.05" cy="518.38" fill="#8b9ad9"></circle><circle r="5" cx="1400.29" cy="686.03" fill="#8b9ad9"></circle><circle r="5" cx="1553.6" cy="-92.21" fill="#8b9ad9"></circle><circle r="5" cx="1602.92" cy="188.75" fill="#8b9ad9"></circle><circle r="5" cx="1550.64" cy="521.18" fill="#8b9ad9"></circle></g><defs><mask id="SvgjsMask1000"><rect width="1440" height="560" fill="#ffffff"></rect></mask><radialGradient id="SvgjsRadialGradient1001"><stop stop-color="#ffffff" offset="0.1"></stop><stop stop-color="#1735b3" offset="0.2"></stop><stop stop-color="rgba(23, 53, 179, 0)" offset="1"></stop></radialGradient></defs></svg>